<svg xmlns="http://www.w3.org/2000/svg" xmlns:xlink="http://www.w3.org/1999/xlink" viewBox="0 0 422.22 441.58"><defs><style>.cls-1,.cls-11,.cls-9{fill:none;}.cls-2{fill:#1e430d;}.cls-3{fill:#d4cc23;}.cls-4{fill:#9e9416;}.cls-5{fill:#c09600;}.cls-6{fill:#91440a;}.cls-7{fill:#a45503;}.cls-8{fill:#967302;}.cls-9{stroke:#1e430d;stroke-width:0.5px;}.cls-11,.cls-9{stroke-miterlimit:10;}.cls-10{fill:#fef638;}.cls-11{stroke:#c09600;stroke-width:0.05px;}.cls-12{clip-path:url(#clip-path);}.cls-13{fill:url(#linear-gradient);}</style><clipPath id="clip-path" transform="translate(-31.58 -161.03)"><path class="cls-1" d="M45.78,539.86a4.89,4.89,0,0,0,.69,3,5.35,5.35,0,0,0,2.44,2c2.08.78,4.74-.09,6.71-2.17A62.27,62.27,0,0,0,49.87,556a32.87,32.87,0,0,0-1,5c-.13,1.12-.22,2.57-.39,5,0,.39-.1,1.49-.29,2.91a16.9,16.9,0,0,1-.52,2.58,6.58,6.58,0,0,1-.34,1,7.13,7.13,0,0,1-1,1.66A6.92,6.92,0,0,1,45,575.48a13,13,0,0,0-1.22,1.14,14.51,14.51,0,0,0-1.39,1.48A9.85,9.85,0,0,0,41,580.53a12,12,0,0,0-.63,2,11.11,11.11,0,0,0-.19,1.29,16.28,16.28,0,0,0,.15,3.84c0,.37.22,1.81.43,2.69a10.11,10.11,0,0,1,.19,1c0,.23.05.46.06.62s.05.47.06.8c0,.13,0,.23,0,1.29a9.49,9.49,0,0,1-.07,1.21c0,.18-.08.36-.08.36a3.27,3.27,0,0,1-.14.42,5.57,5.57,0,0,1-.34.74c-.16.31-.3.55-.3.56A19.42,19.42,0,0,1,38.37,600c-.3.36-.28.3-.7.81-.07.08-.38.45-.8.88a1.49,1.49,0,0,1-.71.42.4.4,0,0,1-.25,0c-.18-.1-.19-.41-.2-.65,0-.4-.13-.8-.15-1.21s0,0-.18-1.8c-.13-1.28-.12-1.36-.19-1.8s-.17-.89-.28-1.39a12.45,12.45,0,0,0-.48-1.7,4.27,4.27,0,0,0-.53-1.1,3.35,3.35,0,0,0-.65-.74,2.92,2.92,0,0,1-.34-.29,2.32,2.32,0,0,1-.42-.58,3,3,0,0,1-.33-1,3.68,3.68,0,0,1-.07-.63,8.74,8.74,0,0,1,0-1,16.22,16.22,0,0,1,.29-2.1c.1-.53.19-.9.33-1.53.19-.82.23-.91.45-1.86a12.29,12.29,0,0,0,.31-1.51,4.88,4.88,0,0,1,.1-.64,5.34,5.34,0,0,1,.18-.62c.25-.74.2-.63.33-1s.19-.46.49-1.24.29-.8.48-1.25.28-.63.43-1,.43-.91.73-1.45c.44-.82.83-1.41.95-1.59s.47-.7,1-1.4c.17-.21.44-.54.82-1l.72-.77c.25-.26.41-.42.64-.68l.41-.48a7,7,0,0,0,.47-.66s.15-.24.3-.52a9.63,9.63,0,0,0,.52-1.17c.08-.22.14-.38.2-.6a5,5,0,0,0,.14-.69c.09-.56.14-.84.16-1.15a11.59,11.59,0,0,0,0-1.51c0-.14,0-.5,0-1.13s-.06-1.13-.1-1.6-.09-1.46-.09-2.52,0-1.64.07-2.16.09-1.51.25-2.68c.08-.61.16-1.06.32-2s.24-1.32.38-1.94.32-1.29.52-2c.13-.46.27-.93.45-1.58.1-.36.17-.62.19-.67C44.7,543,45,542,45.78,539.86Z"/></clipPath><linearGradient id="linear-gradient" x1="251.93" y1="228.73" x2="452.86" y2="228.73" gradientUnits="userSpaceOnUse"><stop offset="0" stop-color="#d4cc23"/><stop offset="1" stop-color="#bb9c04"/></linearGradient></defs><g id="Layer_2" data-name="Layer 2"><path class="cls-2" d="M115.92,438.76l-.28.17a16.83,16.83,0,0,1,.45-1.93c.1-.44.53-1.62.62-1.94,1.64-5.5,2.46-9.58,4.2-15.05,1.37-4.32,2.94-8.58,4.3-12.9.51-1.62.62-3.33,1-5,1-4.49,2.12-9,3.09-13.45a47.22,47.22,0,0,0,.61-5.18c.23-2.27.37-4.54.68-6.81.15-1.16.67-2.3.92-3.46,1-4.54,2-9.08,2.84-13.64.61-3.15,1.24-6.31,1.58-9.48.56-5.24,1-10.49,1.29-15.74s.29-10.4.64-15.6c.18-2.63.86-5.26,1.31-7.89.38-2.26.67-4.54,1.16-6.78.63-2.89,1.52-5.73,2.13-8.62s1-5.71,1.46-8.56a19.5,19.5,0,0,1,2.58-7.61c.46-.7,1.48-4.16,1.8-5,0,.15-.07.31-.1.47a3.12,3.12,0,0,0,.64-.75c-.09.41-1.19,3.79-1.34,4.18-2.28,5.9-2.78,12.07-4.08,18.12-.5,2.29-1.47,4.51-1.89,6.81-.9,4.88-1.49,9.79-2.36,14.68-1,5.77-.42,11.46-.7,17.2-.14,2.81-.49,5.64-.81,8.46-.47,4.17-.83,8.35-1.55,12.5-.67,3.88-1.92,7.7-2.59,11.58-1,5.82-1.69,11.67-2.59,17.5-.29,1.87-.83,3.72-1.27,5.58-.28,1.23-.63,2.45-.86,3.68-.54,2.86-.88,5.76-1.58,8.58-1,4-2.18,8-3.39,11.93-1.72,5.65-3.54,11.28-5.31,16.92-.74,2.34-1.68,4.87-2.41,7.21,0,0-.16-.23-.17-.23Z" transform="translate(-31.58 -161.03)"/><path class="cls-3" d="M436.85,174.61h0c-2.26.11-4.7,2.88-4.42,5.88.1,1,5.16,1.49,6.57.09,1.82-2.11,1.31-5.63-2.11-6Zm-3.23-8.23a2.53,2.53,0,0,0-3.78.54,2.47,2.47,0,0,0,.09,2.12c.48.76,3,.23,3.51-.78A4.44,4.44,0,0,0,433.62,166.38Zm-55,104.08c2.7.3,5.46.28,8.14.68a17.47,17.47,0,0,1,4.15,1.58.82.82,0,0,1,.35.73,1,1,0,0,1-.66.62,4.25,4.25,0,0,1-1.37-.16c-2-.42-4.05-1-6.12-1.25a34.06,34.06,0,0,0-4.73.08c0,.16,0,.31,0,.46a15.22,15.22,0,0,1,2.61,0c3.31.52,6.61,1.08,9.88,1.71a2.19,2.19,0,0,1,1.56,2.92c-4.93-2.51-10.34-2.46-15.83-2,5.24.74,10.59,1,15.54,2.75.1,3-.27,3.34-2.94,3.21l-.63-.05c-6.28-.31-12.49-1.47-18.91-.23a3.34,3.34,0,0,0-1.78.66,31.73,31.73,0,0,0-2.1,2.85c-2.19,2.82-4.36,5.66-6.62,8.41a9.07,9.07,0,0,1-2.47,1.92,1.74,1.74,0,0,1-1.6,0,1.62,1.62,0,0,1-.3-1.53c1.14-2.32,2.1-4.84,3.7-6.81,2.48-3,2-6.22,1.34-9.12-.51-2.2-2.18-4.16-3.72-5.86-3.11-3.44-6.46-6.63-9.74-9.91a22.82,22.82,0,0,0-3.29-3q-6.45-4.34-13.07-8.44a3,3,0,0,0-2.35-.18,46.81,46.81,0,0,1-12.12,2.28c-4.33.39-8.67.18-13,.48-3.58.25-7.05.3-10.36-1-4-1.61-8.21-2.84-12.12-4.66a86.07,86.07,0,0,1-9.83-5.71c-2.43-1.54-4.72-3.31-7-5-3.08-2.25-5.64-5.25-9.45-6.48a5.41,5.41,0,0,1-1.53-.82c-.28-.21-.55-.44-.81-.67-4.71-4.11-10.31-6.81-16.07-9a46.72,46.72,0,0,0-17.44-3.17,19.22,19.22,0,0,0-3.21.35c-2.87.67-5.81.56-8.65,1.76-2.45,1-5.07,1.53-7.59,2.34-2.11.68-4.18,1.46-6.27,2.21a17.8,17.8,0,0,0-4.38,1.7c-2.14,1.51-4.85,2.08-6.52,4.38-.17.24-.58.3-.85.49-3.44,2.4-7.17,4.46-10.22,7.3a105.37,105.37,0,0,0-8.84,10.08,46.68,46.68,0,0,0-2.94,4.13c-1.67,2.63-3.75,5.1-5,7.91-1.85,4.26-3.17,8.72-4.68,13.11a13.33,13.33,0,0,0-.43,1.87h0c-.32.81-1.34,4.27-1.8,5a19.5,19.5,0,0,0-2.58,7.61c-.49,2.85-.86,5.72-1.46,8.56s-1.5,5.73-2.13,8.62c-.49,2.24-.78,4.52-1.16,6.78-.45,2.63-1.13,5.26-1.31,7.89-.35,5.2-.33,10.4-.64,15.6s-.73,10.5-1.29,15.74c-.34,3.17-1,6.33-1.58,9.48-.89,4.56-1.87,9.1-2.84,13.64-.25,1.16-.77,2.3-.92,3.46-.31,2.27-.45,4.54-.68,6.81a47.22,47.22,0,0,1-.61,5.18c-1,4.49-2.08,9-3.09,13.45-.38,1.66-.49,3.37-1,5-1.36,4.32-2.93,8.58-4.3,12.9-1.74,5.47-2.56,9.55-4.2,15.05-.09.32-.52,1.5-.62,1.94a16.83,16.83,0,0,0-.45,1.93l.28-.17c-.86,3.8-1.39,7.09-1.92,9-1.94,6.88-2,5.86-3.17,9.38-2,5.9-10,11.67-13.76,14-12.85,8.06-4.94,35.15-24.37,51.28-8.28,6.87-21.65,23.91-23.52,38.15-.84,6.43-.09,11.7-3.61,14.73-.91.79-3.77,2.86-4.77,6.35a14.7,14.7,0,0,0-.4,2.14,21.16,21.16,0,0,0,.5,6.12c.14.77.15.73.23,1.23a18.23,18.23,0,0,1,.06,4.28c-.18,1.76-5.48,9.52-5.74,6.08-.31-4-.82-8.5-2.33-9.58-2.72-1.94-.38-7.5.11-10.92a32.28,32.28,0,0,1,3.38-8.15c2.21-3.52,3.37-3.64,4.61-5.8,1.83-3.21.89-5.74.92-10.7a44.39,44.39,0,0,1,2.3-13.26,48.88,48.88,0,0,1,10-17.84c2.67-3.16,5.8-5.94,12.06-11.5,6.06-5.39,10.21-14.36,11.29-24.07,1.13-10.26,1.76-15.49,5-20.4,2.88-4.4,6-5.86,9.21-8.29,5.45-4.18,11.92-13.87,15.58-30a.15.15,0,0,0,.15.07,24.72,24.72,0,0,0,.69-2.63c.67-2.68,1.58-4.22,2.16-6.91s1.26-5.68,1.61-8.54c.71-5.9,1.17-11.81,1.86-17.71.58-4.87,1.38-9.73,2-14.6.73-5.73,1.48-11.46,2-17.2.65-6.83,1.09-13.66,1.58-20.5.32-4.45.63-8.9.83-13.35.3-6.92,1.86-13.81,1.85-20.77,0-5.2,1.18-10.5,1.73-15.74.13-1.17.27-2.32.49-3.47.48-2.66,1-5.31,1.6-7.94.74-3,1.75-6,2.52-9.06a104,104,0,0,1,3.83-12,73.46,73.46,0,0,1,6.34-12.31c2.2-3.51,4-7.26,6.28-10.72,1.92-2.93,4.41-5.47,6.36-8.38,4.42-6.6,10.32-11.5,16.69-15.86,2.77-1.89,5.8-3.36,8.49-5.35,4.53-3.35,9.65-5.14,14.67-7.16a79,79,0,0,1,9.85-2.94,32.87,32.87,0,0,1,6.46-1.12c4.45-.25,8.9-.39,13.32-.27,3.36.08,6.68.59,10,1,1.34.16,2.63.77,4,.73a7.38,7.38,0,0,1,5.25,1.61c3.34,3,7.88,3.35,11.72,5.22l1.25.89h0l.13.09.47.3c.35.26.52.42.67.54,2.47,1.86,5,3.69,7.4,5.59,1,.78,1.78,1.88,2.83,2.58,3.12,2.06,6.28,4.07,9.52,5.94a87.1,87.1,0,0,0,8.73,4.55c3.63,1.58,7.71,1.62,11.65,2.16,1.24.17,2.47.33,3.7.44a7.18,7.18,0,0,0,3.59.15,24.7,24.7,0,0,0,3.41-.26l.09,0h0l.1,0a19.57,19.57,0,0,0,4.11.14c4.16-.69,8.32-1.48,12.44-2.46,2.13-.51,4.15-1.79,6.27-2.2,4.65-.89,8.75-3.2,12.93-5.38a66.62,66.62,0,0,0,13-8.58,49.8,49.8,0,0,1,4.4-3.24,13.49,13.49,0,0,1,3.4-1.9,5.33,5.33,0,0,0,3.09-2.07,5.43,5.43,0,0,1,1.27-1.26c2.88-2,5.78-4,8.7-6a16.61,16.61,0,0,1,2.26-1.25c1.46-.71,3-1.24,4.39-2.09,2.16-1.3,4.15-2.91,6.32-4.19,3.32-2,7.16-2.89,9.82-6.15a2.85,2.85,0,0,1,.23-.26q3.54-2,7-4l.41-.1c5-1.07,9-4.65,13.24-7.63a33.1,33.1,0,0,1,12.49-5.26,8.75,8.75,0,0,1,1.77-.22c2,.09,2.6,1.76,3.56,3.2h0a.32.32,0,0,0,0,.07c-.79,3.53-6.33,4.76-7.72,4,1.93,1.23,7.54-.27,7.77-4v-.42c-.28-1.15-1.31-2.13-2.83-3.07,0,0,2.16-.14,2.42-.17,4.6-.56,9.2-1.21,13.81-1.61a3.1,3.1,0,0,1,2.62,1.33,3,3,0,0,1-1.25,3.73c-1.5,1.05-3,2.13-4.48,3.2l.15.28,3.69-2c.26-.14.43-.12.43.25a7.58,7.58,0,0,1-1,2.18c-2.56,2.78-5.19,5.5-7.84,8.18-4.17,4.22-8,8.85-13,12.09-4.54,2.9-9,6-13.48,9-3.12,2.07-6.31,4-9.41,6.14s-5.86,4.13-8.76,6.23c-2.72,2-5.45,4-8.11,6s-5.46,4.51-8.26,6.65c-2.13,1.62-9.24,5.71-11.46,7.23h0a2.14,2.14,0,0,0-.38.23,92.57,92.57,0,0,1-11.94,7.24c-4.79,2.52-9.27,5.74-13.87,8.7a4.86,4.86,0,0,1-2.69.55c.08.1.42.14.5.23a6.59,6.59,0,0,0,3,.09l0,0,.12.15c.35,1.08.5,2.37,1.2,3.12a55.73,55.73,0,0,0,6.36,5.84,97.69,97.69,0,0,0,8.21,5.63,41.54,41.54,0,0,0,6.43,3.31,53.07,53.07,0,0,0,6.77,1.94A37.48,37.48,0,0,0,378.59,270.46Z" transform="translate(-31.58 -161.03)"/><path class="cls-2" d="M118.49,341.51c.61-7.8,1.42-15.61,2.09-23.41.15-1.73,0-3.47.15-5.2.46-4.37,1.07-8.73,1.55-13.1.27-2.42.26-4.86.63-7.27.62-4.09,1.28-8.19,2.2-12.25s2.09-8.31,3.42-12.39A103.14,103.14,0,0,1,133.07,256c4.39-9.31,9-18.53,16.16-26.21,2.4-2.57,4.53-5.39,6.87-8a48.71,48.71,0,0,1,11.32-9.13c2.19-1.33,4.14-3.13,6.36-4.39,4.24-2.4,8.5-4.81,12.92-6.76a95.94,95.94,0,0,1,12.43-4.36,56.28,56.28,0,0,1,13.42-2.05c2.47-.09,5-.46,7.43-.44s4.67.43,7,.57c4.1.24,7.77,1.76,11.51,3.08.92.33,1.74.89,2.63,1.29,2.14.95,4.3,1.87,6.45,2.81,1.51.67,5.26,2.94,7.18,3.84a6.1,6.1,0,0,0-1.65-.28h0l-1.25-.89c-3.84-1.87-8.38-2.25-11.72-5.22a7.38,7.38,0,0,0-5.25-1.61c-1.34,0-2.63-.57-4-.73-3.33-.4-6.65-.91-10-1-4.42-.12-8.87,0-13.32.27a32.87,32.87,0,0,0-6.46,1.12,79,79,0,0,0-9.85,2.94c-5,2-10.14,3.81-14.67,7.16-2.69,2-5.72,3.46-8.49,5.35-6.37,4.36-12.27,9.26-16.69,15.86-2,2.91-4.44,5.45-6.36,8.38-2.27,3.46-4.08,7.21-6.28,10.72a73.46,73.46,0,0,0-6.34,12.31,104,104,0,0,0-3.83,12c-.77,3-1.78,6-2.52,9.06-.64,2.63-1.12,5.28-1.6,7.94-.22,1.15-.36,2.3-.49,3.47-.55,5.24-1.74,10.54-1.73,15.74,0,7-1.55,13.85-1.85,20.77-.2,4.45-.51,8.9-.83,13.35-.49,6.84-.93,13.67-1.58,20.5-.54,5.74-1.29,11.47-2,17.2-.63,4.87-1.43,9.73-2,14.6-.69,5.9-1.15,11.81-1.86,17.71-.35,2.86-1,5.71-1.61,8.54s-1.49,4.23-2.16,6.91a24.72,24.72,0,0,1-.69,2.63.15.15,0,0,1-.15-.07s0-.06-.15-.07a7.26,7.26,0,0,1,.15-1.95c.26-1,.56-1.75.62-2,.84-3.24,1.37-5.18,2-8.44.7-3.92.88-7.89,1.36-11.84.38-3.13.88-6.26,1.35-9.39.32-2.11.75-4.2,1-6.31.59-5.18,1.06-10.38,1.67-15.57s1.47-10.27,1.91-15.42C117.9,353.85,118,347.68,118.49,341.51Z" transform="translate(-31.58 -161.03)"/><path class="cls-4" d="M363.72,237.81c2.53-2.24,4.69-3,7.52-.6,3,2.49,6.91,3,11,2.41a12.44,12.44,0,0,1,4.87.06,8.93,8.93,0,0,1,4,2.38,36.92,36.92,0,0,1,4,5.64.91.91,0,0,1,.09.17c.16.45-.11.93,0,1.82-1-1.79-1.42-3.07-2.49-4.24a38.51,38.51,0,0,0-4.81-4c-.16-.12-.55.07-.84.12.18.43.23,1,.55,1.26a48.26,48.26,0,0,1,4.42,3.29,8.87,8.87,0,0,1,1.8,3.38.85.85,0,0,1,0,.17s0,.05,0,.08v.07a4.35,4.35,0,0,1-.68,1.8c-1.09-3.41-3.92-4.75-6.2-6.68-.11.11-.78-.24-.9-.12,1,1,2.49,2.56,3.5,3.57a5.06,5.06,0,0,1,1.63,4.26c0,.39-.43,1.05-.71,1.1a1.47,1.47,0,0,1-1.29-.46c-1.93-3.16-4.54-5.31-8.33-5.78-.74-.09-1.5-.05-2.26-.07,0,.18-.06.36-.1.55,2.76.69,5.4,1.59,7.37,3.5a4,4,0,0,1,.29.29,1.8,1.8,0,0,1,.19.2.39.39,0,0,1,.08.1,2.79,2.79,0,0,1,.55,1.68v.15a13.39,13.39,0,0,1-2.79-.69,27.48,27.48,0,0,0-7.51-1.75c-2.33-.28-3.6-1.89-5-3.3-1.95-1.91-3.73-4-5.82-5.75-1.18-1-2.83-1.36-4.27-2a6,6,0,0,1-.75-.56C361.93,239.12,362.89,238.54,363.72,237.81Z" transform="translate(-31.58 -161.03)"/><path class="cls-2" d="M379.31,227.59c-1.39.85-6.26,3.52-7.89,4.46a6.41,6.41,0,0,0-1.21.25l-.33.14c2.22-1.52,9.33-5.61,11.46-7.23,2.8-2.14,5.47-4.48,8.26-6.65s5.39-4.05,8.11-6c2.9-2.1,5.8-4.22,8.76-6.23s6.29-4.07,9.41-6.14c4.5-3,8.94-6.07,13.48-9,5.05-3.24,8.84-7.87,13-12.09,2.65-2.68,5.28-5.4,7.84-8.18a7.58,7.58,0,0,0,1-2.18c0-.37-.17-.39-.43-.25l-3.69,2-.15-.28c1.49-1.07,3-2.15,4.48-3.2a3,3,0,0,0,1.25-3.73,3.1,3.1,0,0,0-2.62-1.33c-4.61.4-9.21,1.05-13.81,1.61-.26,0-2.44.18-2.42.17,1.52.94,2.55,1.92,2.83,3.07v.42c0-.29,0-.17,0-.07-1-1.44-1.57-3.11-3.56-3.2a8.75,8.75,0,0,0-1.77.22,33.1,33.1,0,0,0-12.49,5.26c-4.22,3-8.2,6.56-13.24,7.63l-.41.1q2.51-1.44,5-3c3-1.8,5.83-3.79,8.63-5.86a28.18,28.18,0,0,1,17.3-5.44,60.38,60.38,0,0,0,8.24-1.13c1.27-.19,2.53-.46,3.8-.62,2-.24,3.91-.14,5.17,1.49a2.86,2.86,0,0,1,.47,2.32,36.72,36.72,0,0,1-3.05,6.39,31.21,31.21,0,0,1-3.93,4.54c-2.63,2.78-5.35,5.49-8,8.27-1.48,1.57-2.73,3.4-4.31,4.83a76.71,76.71,0,0,1-7,5.57c-1.75,1.23-3.68,2.16-5.53,3.23-2.57,1.49-5.19,2.91-7.7,4.52-1.84,1.18-3.52,2.65-5.3,3.95-2,1.43-4,2.75-5.92,4.24-5,3.9-10.88,6.54-15.21,11.43a10.31,10.31,0,0,1-1.86,1.63C383.7,224.9,381.51,226.26,379.31,227.59Z" transform="translate(-31.58 -161.03)"/><path class="cls-2" d="M303.12,227.8c.78-.39,1.42,0,2.1.21a24.7,24.7,0,0,1-3.41.26A5.42,5.42,0,0,0,303.12,227.8Z" transform="translate(-31.58 -161.03)"/><path class="cls-5" d="M393.93,249.69a.22.22,0,0,1,0,.08S393.93,249.72,393.93,249.69Z" transform="translate(-31.58 -161.03)"/><path class="cls-5" d="M386.53,252.1a2.49,2.49,0,0,1,.56,1.69v0A2.79,2.79,0,0,0,386.53,252.1Z" transform="translate(-31.58 -161.03)"/><path class="cls-2" d="M360.9,239.86a6,6,0,0,0,.75.56c1.44.66,3.09,1.05,4.27,2,2.09,1.73,3.87,3.84,5.82,5.75,1.44,1.41,2.71,3,5,3.3a27.48,27.48,0,0,1,7.51,1.75,13.39,13.39,0,0,0,2.79.69v-.14a2.49,2.49,0,0,0-.56-1.69.39.39,0,0,0-.08-.1,1.8,1.8,0,0,0-.19-.2,4,4,0,0,0-.29-.29c-2-1.91-4.61-2.81-7.37-3.5,0-.19.07-.37.1-.55.76,0,1.52,0,2.26.07,3.79.47,6.4,2.62,8.33,5.78a1.47,1.47,0,0,0,1.29.46c.28-.05.67-.71.71-1.1a5.06,5.06,0,0,0-1.63-4.26c-1-1-2-2.07-2.94-3.11l.34-.34c2.28,1.93,5.11,3.27,6.2,6.68a2.15,2.15,0,0,0,.68-1.8v-.07a.22.22,0,0,0,0-.08.85.85,0,0,0,0-.17,8.87,8.87,0,0,0-1.8-3.38,48.26,48.26,0,0,0-4.42-3.29c-.32-.25-.37-.83-.55-1.26.29-.05.68-.24.84-.12a38.51,38.51,0,0,1,4.81,4c1.07,1.17,1.47,2.45,2.49,4.24a1.45,1.45,0,0,0,0-1.82.91.91,0,0,0-.09-.17,36.92,36.92,0,0,0-4-5.64,8.93,8.93,0,0,0-4-2.38,12.44,12.44,0,0,0-4.87-.06c-4.1.61-8,.08-11-2.41-2.83-2.38-5-1.64-7.52.6C362.89,238.54,361.93,239.12,360.9,239.86Zm1,2.08c-2-1.72-2.85-1.71-5.29-.2-3.13,1.93-6.32,3.76-9.45,5.69a29.51,29.51,0,0,0-2.7,2h0a6.59,6.59,0,0,1-3-.09c-.08-.09-.42-.13-.5-.23a4.86,4.86,0,0,0,2.69-.55c4.6-3,9.08-6.18,13.87-8.7a92.57,92.57,0,0,0,11.94-7.24,2.14,2.14,0,0,1,.38-.23c.07.13,1.33-.44,1.4-.31l.15-.09a9.54,9.54,0,0,0-2.34,2.33c3.52,2.47,7.16,4.48,11.71,3.77,3.63-.56,6.54.85,9.54,2.26,3.26,1.54,5,4.36,6.21,7.62a3,3,0,0,1-.35,2.26,21.37,21.37,0,0,1-2.43,2.81,17.28,17.28,0,0,0-1.4,1.44,2.54,2.54,0,0,1-3.43.58c-.36-.26-.84-.74-1.14-.64-2.34.79-4.36-.23-6.47-.61-2.81-.5-5.79-.66-8.07-2.52-1.59-1.29-3-2.84-4.51-4.17-1.88-1.59-3.84-3.06-5.78-4.58C362.64,242.35,362.24,242.21,361.93,241.94Z" transform="translate(-31.58 -161.03)"/><path class="cls-2" d="M436.85,174.62c3.42.33,3.93,3.85,2.11,6C439.88,178.72,440.8,175.44,436.85,174.62Z" transform="translate(-31.58 -161.03)"/><path d="M437.75,177.1c.43.51.36,1.49.51,2.26-1.16,1.06-3.07,1.59-3.68.81a2.3,2.3,0,0,1,0-2.06C435.44,176.66,437,176.19,437.75,177.1Z" transform="translate(-31.58 -161.03)"/><path class="cls-2" d="M436.85,174.61h0Z" transform="translate(-31.58 -161.03)"/><path class="cls-2" d="M436.83,174.61h0c-4.26,1.61-4.73,5-4.13,6.08s5.38,0,6.25-.12c-1.41,1.4-6.47.93-6.57-.09-.28-3,2.16-5.77,4.42-5.88Z" transform="translate(-31.58 -161.03)"/><path class="cls-2" d="M436.56,167.12c0-.1,0-.22,0,.07l0-.06Z" transform="translate(-31.58 -161.03)"/><path class="cls-2" d="M436.56,167.13l0,.06c-.23,3.72-5.84,5.22-7.77,4,1.39.78,6.93-.45,7.72-4A.32.32,0,0,1,436.56,167.13Z" transform="translate(-31.58 -161.03)"/><path class="cls-2" d="M433.62,166.38a4.44,4.44,0,0,1-.18,1.88c-.52,1-3,1.54-3.51.78a2.47,2.47,0,0,1-.09-2.12A2.53,2.53,0,0,1,433.62,166.38Z" transform="translate(-31.58 -161.03)"/><path class="cls-2" d="M398.06,181.12a13.13,13.13,0,0,1,7-4Q401.6,179.17,398.06,181.12Z" transform="translate(-31.58 -161.03)"/><path class="cls-2" d="M398.06,181.12a2.85,2.85,0,0,0-.23.26c-2.66,3.26-6.5,4.19-9.82,6.15-2.17,1.28-4.16,2.89-6.32,4.19-1.39.85-2.93,1.38-4.39,2.09a16.61,16.61,0,0,0-2.26,1.25c-2.92,2-5.82,4-8.7,6a5.43,5.43,0,0,0-1.27,1.26,5.33,5.33,0,0,1-3.09,2.07,13.49,13.49,0,0,0-3.4,1.9,49.8,49.8,0,0,0-4.4,3.24,66.62,66.62,0,0,1-13,8.58c-4.18,2.18-8.28,4.49-12.93,5.38-2.12.41-4.14,1.69-6.27,2.2-4.12,1-8.28,1.77-12.44,2.46a19.57,19.57,0,0,1-4.11-.14,4.9,4.9,0,0,1,1.32-.56c4.42-.81,8.88-1.4,13.27-2.41a70.17,70.17,0,0,0,12.66-4A109,109,0,0,0,349,212.3c2.76-1.83,5.27-4.06,8-5.94q8.53-5.88,17.17-11.55c4.25-2.78,8.54-5.5,12.91-8,3-1.75,6.25-3.05,9.31-4.73Z" transform="translate(-31.58 -161.03)"/><path class="cls-5" d="M395.28,247.87a1.45,1.45,0,0,1,0,1.82C395.17,248.8,395.44,248.32,395.28,247.87Z" transform="translate(-31.58 -161.03)"/><path class="cls-5" d="M393.94,249.84a2.15,2.15,0,0,1-.68,1.8A4.35,4.35,0,0,0,393.94,249.84Z" transform="translate(-31.58 -161.03)"/><path class="cls-2" d="M393.18,278.68c.8,2.45-.57,4.19-3.27,4.08-4.84-.2-9.66-.52-14.51-.65a16.7,16.7,0,0,0-5.22.54c-1.07.32-2,1.48-2.91,2.32a44.79,44.79,0,0,0-6.92,8.53c-1.2,1.76-2.79,3-5,2.88-1.15-.05-1.72-.57-1.61-1.63a7.64,7.64,0,0,1,.84-2.95c1.24-2.23,2.93-4.26,3.9-6.57a8.54,8.54,0,0,0,.45-5.21c-1.24-4.28-4.08-7.55-7.08-10.59-2.42-2.45-5-4.77-7.61-7-1.6-1.35-3.47-2.36-5.16-3.6-1.53-1.13-3-2.36-4.49-3.52s-2.79-2.24-4.29-3.2a2.56,2.56,0,0,0-2-.17,46.56,46.56,0,0,1-17.15,2.79c-4.31-.08-8.68.26-13-.07a30.18,30.18,0,0,1-8.75-2c-4.92-1.95-10-3.82-14.37-6.68-5.77-3.77-12.07-6.77-17.21-11.52a52.39,52.39,0,0,0-5.87-4.63h0l.22-.31a5.41,5.41,0,0,0,1.53.82c3.81,1.23,6.37,4.23,9.45,6.48,2.32,1.7,4.61,3.47,7,5a86.07,86.07,0,0,0,9.83,5.71c3.91,1.82,8.1,3.05,12.12,4.66,3.31,1.32,6.78,1.27,10.36,1,4.33-.3,8.67-.09,13-.48a46.81,46.81,0,0,0,12.12-2.28,3,3,0,0,1,2.35.18q6.61,4.11,13.07,8.44a22.82,22.82,0,0,1,3.29,3c3.28,3.28,6.63,6.47,9.74,9.91,1.54,1.7,3.21,3.66,3.72,5.86.68,2.9,1.14,6.08-1.34,9.12-1.6,2-2.56,4.49-3.7,6.81a1.62,1.62,0,0,0,.3,1.53,1.74,1.74,0,0,0,1.6,0,9.07,9.07,0,0,0,2.47-1.92c2.26-2.75,4.43-5.59,6.62-8.41a31.73,31.73,0,0,1,2.1-2.85,3.34,3.34,0,0,1,1.78-.66c6.42-1.24,12.63-.08,18.91.23l.63.05c2.67.13,3-.26,2.94-3.21-5-1.72-10.3-2-15.54-2.75,5.49-.45,10.9-.5,15.83,2a2.19,2.19,0,0,0-1.56-2.92c-3.27-.63-6.57-1.19-9.88-1.71a15.22,15.22,0,0,0-2.61,0c0-.15,0-.3,0-.46a34.06,34.06,0,0,1,4.73-.08c2.07.25,4.08.83,6.12,1.25a4.25,4.25,0,0,0,1.37.16,1,1,0,0,0,.66-.62.82.82,0,0,0-.35-.73,17.47,17.47,0,0,0-4.15-1.58c-2.68-.4-5.44-.38-8.14-.68a37.48,37.48,0,0,1-5-1,53.07,53.07,0,0,1-6.77-1.94,41.54,41.54,0,0,1-6.43-3.31,97.69,97.69,0,0,1-8.21-5.63,55.73,55.73,0,0,1-6.36-5.84c-.7-.75-.85-2-1.2-3.12a20.8,20.8,0,0,0,2.13,2.53c3.42,3.11,6.7,6.44,10.44,9.11A61.66,61.66,0,0,0,367.87,267c3.92,1.75,8.24,2.23,12.62,2.57a73.44,73.44,0,0,1,10.06,1.92,1.71,1.71,0,0,1,1.2,1.08c.29,1.87,2.14,3.24,1.3,5.46C393,278.24,393.12,278.48,393.18,278.68Z" transform="translate(-31.58 -161.03)"/><path class="cls-5" d="M386.72,245.3c1,1,1.93,2.1,2.94,3.11-1-1-2.52-2.54-3.5-3.57.12-.12.79.23.9.12Z" transform="translate(-31.58 -161.03)"/><path class="cls-5" d="M386.26,251.8a4,4,0,0,0-.29-.29A4,4,0,0,1,386.26,251.8Z" transform="translate(-31.58 -161.03)"/><path class="cls-2" d="M371.42,232.05l-.15.09c-.07-.13-1.33.44-1.4.31h0l.33-.14A6.41,6.41,0,0,1,371.42,232.05Z" transform="translate(-31.58 -161.03)"/><path d="M344.57,249.66l-.12-.15.06,0Z" transform="translate(-31.58 -161.03)"/><path class="cls-2" d="M344.51,249.48l-.06,0,0,0h0Z" transform="translate(-31.58 -161.03)"/><path class="cls-2" d="M305.41,228l-.1,0h0v0Z" transform="translate(-31.58 -161.03)"/><path class="cls-2" d="M305.3,228v0l-.09,0Z" transform="translate(-31.58 -161.03)"/><path class="cls-2" d="M298.22,228.12a33.05,33.05,0,0,0,3.59.15A7.18,7.18,0,0,1,298.22,228.12Z" transform="translate(-31.58 -161.03)"/><path class="cls-2" d="M296,227.2a10.65,10.65,0,0,0,2.21.92c-1.23-.11-2.46-.27-3.7-.44-3.94-.54-8-.58-11.65-2.16a87.1,87.1,0,0,1-8.73-4.55c-3.24-1.87-6.4-3.88-9.52-5.94-1.05-.7-1.83-1.8-2.83-2.58-2.44-1.9-4.93-3.73-7.4-5.59-.15-.12-.32-.28-.67-.54.63.36.56.07,1.25,0a.2.2,0,0,1,.08,0c3.82,2.83,7.55,5.76,11.43,8.5,3,2.1,6.15,3.92,9.19,5.92,4.69,3.07,10.21,4.09,15.55,5.55C292.78,226.74,294.6,226.43,296,227.2Z" transform="translate(-31.58 -161.03)"/><path class="cls-2" d="M255,206.29a0,0,0,0,1,0,0c-.69.09-.62.38-1.25,0-.13-.08-.28-.19-.47-.3l-.13-.09a6.1,6.1,0,0,1,1.65.28Z" transform="translate(-31.58 -161.03)"/><path class="cls-2" d="M255,206.29l-.19-.08.1,0Z" transform="translate(-31.58 -161.03)"/><path d="M253.72,206.32l-.47-.3C253.44,206.13,253.59,206.24,253.72,206.32Z" transform="translate(-31.58 -161.03)"/><path class="cls-2" d="M180.67,300.38l.12-.44c1.29.43,5,1.8,6.27,2.24a2,2,0,0,0,.89.21c2.8-.56,5.65-1.06,7.35-4,.69-1.19,2-1.78,2.29-3.45a5.83,5.83,0,0,0-2-5.79c-2-1.7-4.18-2.5-7-1.14-2,1-3.51,0-4.72-1.38a2.06,2.06,0,0,1-.28-1.77c.64-1.7-.39-1.61-1.53-1.73.31,3.68-2.39,5.47-4.63,7.43a3.89,3.89,0,0,1-2.57.38c-1.36-.12-1.77.15-1.74,1.54a7.35,7.35,0,0,0,5.93,6.87,9.44,9.44,0,0,1,1.7.57A2,2,0,0,0,180.67,300.38Zm-28.34-34.89a3.53,3.53,0,0,0-.9,1.13c-.8,2.17-1.47,4.39-2.21,6.58a4.26,4.26,0,0,1-.38.85c-.12,0-.43.3-.54.27a13.33,13.33,0,0,1,.43-1.87c1.51-4.39,2.83-8.85,4.68-13.11,1.22-2.81,3.3-5.28,5-7.91a46.68,46.68,0,0,1,2.94-4.13,105.37,105.37,0,0,1,8.84-10.08c3.05-2.84,6.78-4.9,10.22-7.3.27-.19.68-.25.85-.49,1.67-2.3,4.38-2.87,6.52-4.38a17.8,17.8,0,0,1,4.38-1.7c2.09-.75,4.16-1.53,6.27-2.21,2.52-.81,5.14-1.3,7.59-2.34,2.84-1.2,5.78-1.09,8.65-1.76a19.22,19.22,0,0,1,3.21-.35,46.72,46.72,0,0,1,17.44,3.17c5.76,2.2,11.36,4.9,16.07,9,.26.23.53.46.81.67l-.22.31c-.89-.61-1.79-1.19-2.71-1.76a84,84,0,0,0-12.13-6.3c-2.91-1.2-6.19-1.61-9.31-2.39a39.18,39.18,0,0,0-20.05.17c-4.45,1.21-8.77,3.09-13.15,4.67-.92.33-1.88.55-2.77.95-2.79,1.25-5.64,2.38-8.3,3.89-3.38,1.91-6.62,4.12-9.89,6.26a5.67,5.67,0,0,0-1.06,1.4c.44.32.86.65,1.32.93,2,1.22,4.14,2.26,6,3.66s3.66,3.25,5.48,4.89c.11.11.25.25.38.24,3.2-.33,3.84,2.54,5.2,4.38.73,1,1.18,1.67,2.58,1.25,2.14-.64,3.83.26,5.17,1.76a1.9,1.9,0,0,0,2.8.47,6.88,6.88,0,0,1,9.74,4.6c.75,4.12.15,5.51-3.68,7.58-2,1.11-5.32,2.6-8,2.07.24,0,.51-.27.78-.41-.14-.25-.2-.61-.42-.73,2.27-.15,6.88-2.23,9.09-3.64,1-.65,1.76-1.4,1.06-2.82-.57-1.15-.16-2.67-1.35-3.72-1.78-1.58-5.44-2.67-7.41-1.45-1,.64-1.67.34-2.57-.19a16.06,16.06,0,0,0-4.36-1.75c-.4-.09-1.38.77-1.62,1.37-.42,1-.32,2.18-.7,3.2-.19.52-2.69,1.22-3.27,1.4-.73-.3-1.34-.51-1.87-.72,1.42-.35,4.76-.14,4.44-1-.46-1.26,2.07-3.59.72-5-.75-.77-3.15-4-3.93-4.71a3.67,3.67,0,0,0-2.21-.61c-3.29-3.76-7.43-6.5-11.75-9a10.34,10.34,0,0,0-2-.89c-1.36-.43-2,.63-2.43,1.65-.51,1.23.71,1.09,1.29,1.48a18.88,18.88,0,0,1,1.75,1.49c2,1.75,4.15,3.45,6.15,5.26,1.2,1.09,2.22,2.38,3.39,3.52.47.45,1.29,1.15,1.64,1a9,9,0,0,0,2.23-2c.2-.2-.39-2.2-.29-2.53,2.52.85,2.43,5.12-.64,6.17a2.84,2.84,0,0,1-2,0c-.53-.18-.88-.79-1.47-1.09a5,5,0,0,0,1.67,3.41,13.56,13.56,0,0,0,2.17,2.18,5.83,5.83,0,0,0,1.3.64c-.33.08-.56.19-.61.35a12.5,12.5,0,0,0,2.48.37,23,23,0,0,1-3.75.67c-1.11,0-1.56.52-1.47,1.46a7.81,7.81,0,0,0,.71,2.73c.77,1.54,1.7,3,2.61,4.45a2.67,2.67,0,0,0,3.37,1.19c1.39-.4,2.67-.56,3.68-2.05s4.54-1.73,6-.85c-.47.1.06.8-.37,1.14a10,10,0,0,0-7.52,2.77,4.1,4.1,0,0,1-6.11-1c-1-1.57-1.92-3.13-3-4.6-1.56-2.07-1.3-4.31,0-6.5.72-1.24.55-1.78-.59-2.36-1.74-.89-2-2.61-1.85-4.53a3.21,3.21,0,0,0-.6-2.29,100.19,100.19,0,0,0-8.65-7.19c-3.57-2.52-3.05-1.81-5.73,1.52-3.49,4.33-6.55,9-9.82,13.5-1.14,1.59-1.07,2.43.46,3.28,2.46,1.37,4.94,2.68,6.84,4.87a12.11,12.11,0,0,0,2.73,1.81,1.8,1.8,0,0,1,.5.35c1.46,1.82,2.89,3.66,4.34,5.49,1.07,1.36,2.15,2.71,3.29,4.14a5,5,0,0,1,6.35,2.44c.52.85.95,1.62,2.28,1.39s2.64,1.25,3,2.87c.65,2.49.65,2.43,3.18,2.17a10.41,10.41,0,0,1,6.25.91,6.89,6.89,0,0,1,2.76,9.29,18.51,18.51,0,0,0-.76,2c-.65,2-2.36,2.78-4,3.3a19.28,19.28,0,0,1-6.39,1.11c-1.28,0-4.81-1.91-6-2.63a1.1,1.1,0,0,0,.08-.27,2.76,2.76,0,0,0-.08.27,13.05,13.05,0,0,1-3.18-.45c-2.75-1.12-5.14-2.57-5.25-6.22a20.09,20.09,0,0,0-2.21-7.84,2.81,2.81,0,0,1-.22-2.15c1.14-1.8-.05-2.75-.92-3.66-3.45-3.61-6.94-7.18-10.52-10.64C156.92,268.44,153.85,266.63,152.33,265.49Zm.19-.2a.67.67,0,0,0-.14.15Zm.19-.21c1.53,1.14,4.55,2.9,6,4.11a79.55,79.55,0,0,1,6.68,5.88c2,2.1,3.7,4.53,5.52,6.82A8.5,8.5,0,0,0,172,283.4a4.93,4.93,0,0,0,1.58.55,7.47,7.47,0,0,0,.64-1.9c.13-3.05-1.84-5-3.51-6.94a74.53,74.53,0,0,0-13.42-12c-1-.75-2.14-1.39-3.21-2.08C152.68,262.77,152.26,264.36,152.71,265.08Zm26.79,21c1-1,1.42-2,.65-3.16a5,5,0,0,1-.45-.82c-.9-2.3-1.81-2.83-4.41-2.5.37,1.47,1.63,2.93.07,4.49a3.9,3.9,0,0,1-4.37.81c0,.48-.14.89,0,1.08a17.24,17.24,0,0,0,2.83,3.43,2.77,2.77,0,0,0,2.56-.26A29.12,29.12,0,0,0,179.5,286Z" transform="translate(-31.58 -161.03)"/><path class="cls-6" d="M210.12,261c.7,1.42-.05,2.17-1.06,2.82-2.21,1.41-6.82,3.49-9.09,3.64-1.44-.88-5-.56-6,.85s-2.29,1.65-3.68,2.05a2.67,2.67,0,0,1-3.37-1.19c-.91-1.46-1.84-2.91-2.61-4.45a7.81,7.81,0,0,1-.71-2.73c-.09-.94.36-1.45,1.47-1.46a23,23,0,0,0,3.75-.67c.58-.18,3.08-.88,3.27-1.4.38-1,.28-2.2.7-3.2.24-.6,1.22-1.46,1.62-1.37a16.06,16.06,0,0,1,4.36,1.75c.9.53,1.54.83,2.57.19,2-1.22,5.63-.13,7.41,1.45C210,258.3,209.55,259.82,210.12,261Z" transform="translate(-31.58 -161.03)"/><path class="cls-2" d="M200,267.43c.22.12.28.48.42.73-.27.14-.54.41-.78.41h0C200,268.23,199.5,267.53,200,267.43Z" transform="translate(-31.58 -161.03)"/><path class="cls-7" d="M195.58,289.17a5.83,5.83,0,0,1,2,5.79c-.28,1.67-1.6,2.26-2.29,3.45-1.7,2.92-4.55,3.42-7.35,4a2,2,0,0,1-.89-.21c-1.28-.44-5-1.81-6.27-2.24a9.44,9.44,0,0,0-1.7-.57,7.35,7.35,0,0,1-5.93-6.87c0-1.39.38-1.66,1.74-1.54a3.89,3.89,0,0,0,2.57-.38c2.24-2,4.94-3.75,4.63-7.43,1.14.12,2.17,0,1.53,1.73a2.06,2.06,0,0,0,.28,1.77c1.21,1.39,2.74,2.35,4.72,1.38C191.4,286.67,193.62,287.47,195.58,289.17Zm-10.73.42a.83.83,0,0,0-.34-.74,1.16,1.16,0,0,0-.95.32c-.47.91-.83,1.87-1.22,2.81l.67.43C183.64,291.48,184.29,290.56,184.85,289.59Z" transform="translate(-31.58 -161.03)"/><path class="cls-8" d="M192.13,253.13c1.35,1.39-1.18,3.72-.72,5,.32.86-3,.65-4.44,1a5.83,5.83,0,0,1-1.3-.64,13.56,13.56,0,0,1-2.17-2.18,5,5,0,0,1-1.67-3.41c.59.3.94.91,1.47,1.09a2.84,2.84,0,0,0,2,0c3.07-1,3.16-5.32.64-6.17a3.67,3.67,0,0,1,2.21.61C189,249.14,191.38,252.36,192.13,253.13Z" transform="translate(-31.58 -161.03)"/><path class="cls-2" d="M188.84,259.83a12.5,12.5,0,0,1-2.48-.37c0-.16.28-.27.61-.35C187.5,259.32,188.11,259.53,188.84,259.83Z" transform="translate(-31.58 -161.03)"/><path class="cls-4" d="M186,247.81c-.1.33.49,2.33.29,2.53a9,9,0,0,1-2.23,2c-.35.17-1.17-.53-1.64-1-1.17-1.14-2.19-2.43-3.39-3.52-2-1.81-4.1-3.51-6.15-5.26a18.88,18.88,0,0,0-1.75-1.49c-.58-.39-1.8-.25-1.29-1.48.42-1,1.07-2.08,2.43-1.65a10.34,10.34,0,0,1,2,.89C178.56,241.31,182.7,244.05,186,247.81Z" transform="translate(-31.58 -161.03)"/><path class="cls-2" d="M184.51,288.85a.83.83,0,0,1,.34.74c-.56,1-1.21,1.89-1.84,2.82l-.67-.43c.39-.94.75-1.9,1.22-2.81A1.16,1.16,0,0,1,184.51,288.85Z" transform="translate(-31.58 -161.03)"/><path d="M180.79,299.94l-.12.44A2,2,0,0,1,180.79,299.94Z" transform="translate(-31.58 -161.03)"/><path class="cls-5" d="M180.15,282.88c.77,1.2.36,2.19-.65,3.16a29.12,29.12,0,0,1-3.12,3.07,2.77,2.77,0,0,1-2.56.26,17.24,17.24,0,0,1-2.83-3.43c-.14-.19,0-.6,0-1.08a3.9,3.9,0,0,0,4.37-.81c1.56-1.56.3-3-.07-4.49,2.6-.33,3.51.2,4.41,2.5A5,5,0,0,0,180.15,282.88Z" transform="translate(-31.58 -161.03)"/><path class="cls-3" d="M170.7,275.11c1.67,2,3.64,3.89,3.51,6.94a7.47,7.47,0,0,1-.64,1.9,4.93,4.93,0,0,1-1.58-.55,8.5,8.5,0,0,1-1.07-1.51c-1.82-2.29-3.51-4.72-5.52-6.82a79.55,79.55,0,0,0-6.68-5.88c-1.46-1.21-4.48-3-6-4.11-.45-.72,0-2.31,1.36-4.09,1.07.69,2.18,1.33,3.21,2.08A74.53,74.53,0,0,1,170.7,275.11Z" transform="translate(-31.58 -161.03)"/><path d="M152.52,265.29l-.14.15A.67.67,0,0,1,152.52,265.29Z" transform="translate(-31.58 -161.03)"/><path d="M148.3,274.32c.11,0,.42-.3.54-.27a3.12,3.12,0,0,1-.64.75c0-.16.06-.32.1-.47Z" transform="translate(-31.58 -161.03)"/><path class="cls-9" d="M116.33,437.06c-.14.58-.28,1.14-.41,1.7-.86,3.8-1.39,7.09-1.92,9-1.94,6.88-2,5.86-3.17,9.38-2,5.9-10,11.67-13.76,14-12.85,8.06-4.94,35.15-24.37,51.28-8.28,6.87-21.65,23.91-23.52,38.15-.84,6.43-.09,11.7-3.61,14.73-.91.79-3.77,2.86-4.77,6.35a14.7,14.7,0,0,0-.4,2.14,21.16,21.16,0,0,0,.5,6.12c.14.77.15.73.23,1.23a18.23,18.23,0,0,1,.06,4.28c-.18,1.76-5.48,9.52-5.74,6.08-.31-4-.82-8.5-2.33-9.58-2.72-1.94-.38-7.5.11-10.92a32.28,32.28,0,0,1,3.38-8.15c2.21-3.52,3.37-3.64,4.61-5.8,1.83-3.21.89-5.74.92-10.7a44.39,44.39,0,0,1,2.3-13.26,48.88,48.88,0,0,1,10-17.84c2.67-3.16,5.8-5.94,12.06-11.5,6.06-5.39,10.21-14.36,11.29-24.07,1.13-10.26,1.76-15.49,5-20.4,2.88-4.4,6-5.86,9.21-8.29,5.45-4.18,11.92-13.87,15.58-30,.15-.67.3-1.36.44-2.06" transform="translate(-31.58 -161.03)"/><path class="cls-5" d="M400.85,182.5a8,8,0,0,1,4.49-2.7" transform="translate(-31.58 -161.03)"/><path class="cls-5" d="M229.68,209.17a2.45,2.45,0,0,1-1.31.08c-.44-.06-.86-.14-1.28-.24a13.29,13.29,0,0,0-2.49-.6l-2.57,0a9,9,0,0,0-2.49,0l0,0a2,2,0,0,1,1.24-.49,6.36,6.36,0,0,1,1.31,0,16.84,16.84,0,0,1,2.56.4c.85.13,1.74.14,2.57.34a15.23,15.23,0,0,0,2.47.54Z" transform="translate(-31.58 -161.03)"/><path class="cls-5" d="M169.68,225c-.66.62-1.32,1.26-2,1.86s-1.5,1-2.16,1.69a12.65,12.65,0,0,0-.9,1c-.3.35-.62.68-.92,1a14,14,0,0,1-2.09,1.8l0,0a15,15,0,0,1,1.75-2.14c.34-.31.67-.63,1-.92s.73-.56,1.07-.87c.67-.63,1.26-1.35,2-1.93a12.17,12.17,0,0,1,2.29-1.56Z" transform="translate(-31.58 -161.03)"/><path class="cls-2" d="M427.52,165.07" transform="translate(-31.58 -161.03)"/><path class="cls-2" d="M430.5,164.14a8.88,8.88,0,0,0-2.17,1.11,3,3,0,0,0-1.23,1.88,4.27,4.27,0,0,0,.3,2.28,3.83,3.83,0,0,0,1.52,1.82,3.31,3.31,0,0,1-1.89-1.64,4,4,0,0,1-.41-2.55,3.1,3.1,0,0,1,1.5-2.09A6.47,6.47,0,0,1,430.5,164.14Z" transform="translate(-31.58 -161.03)"/></g><g id="Layer_3" data-name="Layer 3"><path class="cls-10" d="M363.5,209.82c2.06-1.5.78-.32,6.94-4.56" transform="translate(-31.58 -161.03)"/><path class="cls-10" d="M373.38,210.16c3.12-1.88,4.82-5,7-5.25" transform="translate(-31.58 -161.03)"/><path class="cls-10" d="M370,215.51l-4.86,3.34" transform="translate(-31.58 -161.03)"/><path class="cls-10" d="M370.87,201.07a13.13,13.13,0,0,1,2.77-2.34,13.83,13.83,0,0,1,2.24-1.1" transform="translate(-31.58 -161.03)"/><path class="cls-5" d="M384.36,196.51l-1,.65a6.93,6.93,0,0,0-1,.66c-.66.49-1.29,1-1.91,1.53h0a18.4,18.4,0,0,1,4-2.85Z" transform="translate(-31.58 -161.03)"/><path class="cls-5" d="M353.13,224.15a7.55,7.55,0,0,1,2.19-1.52c.8-.39,1.61-.77,2.37-1.23a31.79,31.79,0,0,0,4.31-3.16h0a24.7,24.7,0,0,1-4.29,3.18c-.78.45-1.58.84-2.37,1.24a8.29,8.29,0,0,0-2.2,1.49Z" transform="translate(-31.58 -161.03)"/><path class="cls-10" d="M367,224.81c-1.35,1.63-4.08,2.5-5.83,3.7" transform="translate(-31.58 -161.03)"/><path class="cls-5" d="M352.55,216.42a12,12,0,0,1,2.29-2,11.19,11.19,0,0,1,2.73-1.4h0a15.24,15.24,0,0,0-2.71,1.43,13,13,0,0,0-2.3,2Z" transform="translate(-31.58 -161.03)"/><path class="cls-10" d="M366,211.86a15.91,15.91,0,0,0-1.6,1,19.22,19.22,0,0,0-2.37,1.87" transform="translate(-31.58 -161.03)"/><path class="cls-5" d="M330.5,229.72a22.59,22.59,0,0,1-2.36.92,23.35,23.35,0,0,1-2.48.55c-1.66.29-3.35.47-5,.63h0c1.68-.21,3.36-.39,5-.65a16.32,16.32,0,0,0,2.47-.56c.8-.25,1.59-.57,2.37-.89Z" transform="translate(-31.58 -161.03)"/><path class="cls-5" d="M311.65,229.79a11.43,11.43,0,0,1-3.39.91,7.92,7.92,0,0,1-3.49-.24h0a9.12,9.12,0,0,0,3.49.22,12.93,12.93,0,0,0,3.39-.88Z" transform="translate(-31.58 -161.03)"/><path class="cls-5" d="M314.26,237.78a11.76,11.76,0,0,1-3,.7,10.89,10.89,0,0,1-3.07-.06h0a14.91,14.91,0,0,0,3.06,0,13.91,13.91,0,0,0,3-.67Z" transform="translate(-31.58 -161.03)"/><path class="cls-11" d="M300.23,233.8a5.61,5.61,0,0,0,.72,0,4,4,0,0,0,.82,0" transform="translate(-31.58 -161.03)"/><path class="cls-11" d="M353.58,219a16.78,16.78,0,0,1-4.32,2.17" transform="translate(-31.58 -161.03)"/><path class="cls-5" d="M350.28,231.46a12.17,12.17,0,0,1-2.62,2,8.85,8.85,0,0,1-3.08,1.19h0a10.9,10.9,0,0,0,3.06-1.2,13.83,13.83,0,0,0,2.63-2Z" transform="translate(-31.58 -161.03)"/><path class="cls-5" d="M340.68,230.15a16.62,16.62,0,0,1-3.9,2,14.45,14.45,0,0,1-4.31.88h0a17.07,17.07,0,0,0,4.3-.9,18.5,18.5,0,0,0,3.91-2Z" transform="translate(-31.58 -161.03)"/><path class="cls-5" d="M323.19,247.3c.41-.07.8-.16,1.21-.22a8.22,8.22,0,0,0,1.2-.24c.79-.22,1.56-.46,2.33-.74h0a18.51,18.51,0,0,1-4.75,1.2Z" transform="translate(-31.58 -161.03)"/><path class="cls-5" d="M280,227.86a17.48,17.48,0,0,1-2.89-1,29.12,29.12,0,0,1-2.65-1.55c-1.73-1.1-3.4-2.3-5.05-3.51h0c1.68,1.17,3.36,2.36,5.06,3.49a22.69,22.69,0,0,0,2.66,1.54,20.58,20.58,0,0,0,2.87,1.07Z" transform="translate(-31.58 -161.03)"/><path class="cls-5" d="M290.4,235.22a27.28,27.28,0,0,1-5.06-1,26.71,26.71,0,0,1-4.83-1.8h0a36,36,0,0,0,4.84,1.78,33.2,33.2,0,0,0,5,1Z" transform="translate(-31.58 -161.03)"/><path class="cls-5" d="M293.52,247a19.19,19.19,0,0,1-3.52-.6c-.59-.13-1.14-.34-1.72-.52l-1.69-.57h0l1.71.53c.57.17,1.13.39,1.7.53a25,25,0,0,0,3.52.63Z" transform="translate(-31.58 -161.03)"/><path class="cls-5" d="M274.91,234.29c.52.24,1.06.47,1.58.73a12.48,12.48,0,0,0,1.58.71c1.08.42,2.16.85,3.23,1.31h0c-1.08-.41-2.16-.83-3.23-1.28s-2.11-1-3.15-1.47Z" transform="translate(-31.58 -161.03)"/><path class="cls-5" d="M203.07,207.81a12.77,12.77,0,0,1,3.22-1.32,8.57,8.57,0,0,1,3.45-.29h0a10.51,10.51,0,0,0-3.44.32,14.56,14.56,0,0,0-3.23,1.3Z" transform="translate(-31.58 -161.03)"/><path class="cls-5" d="M199.17,201.14a12.05,12.05,0,0,1,2.84-1.08,11.78,11.78,0,0,1,3-.39h0a16.93,16.93,0,0,0-3,.42,14.55,14.55,0,0,0-2.85,1Z" transform="translate(-31.58 -161.03)"/><path class="cls-5" d="M213.67,202.56c-1,.09-2-.33-2.91,0-.48.1-1,.16-1.45.22a6.92,6.92,0,0,0-1.44.28h0a15.66,15.66,0,0,1,2.88-.51,3.61,3.61,0,0,1,1.46-.08,9,9,0,0,0,1.46.12Z" transform="translate(-31.58 -161.03)"/><path class="cls-5" d="M153,238.62a17.29,17.29,0,0,1,1.36-2.5,8,8,0,0,1,1.84-2.14h0a10.18,10.18,0,0,0-1.82,2.16,23.13,23.13,0,0,0-1.39,2.48Z" transform="translate(-31.58 -161.03)"/><path class="cls-5" d="M150.34,235.05a16.64,16.64,0,0,1,1.24-2.17,18.23,18.23,0,0,1,1.57-1.94h0l-.78,1a9.23,9.23,0,0,0-.77,1c-.47.68-.85,1.43-1.25,2.15Z" transform="translate(-31.58 -161.03)"/><path class="cls-5" d="M159.05,228.44a8.3,8.3,0,0,1-1,.85,12,12,0,0,0-1,.85,11.8,11.8,0,0,0-.73,1.11l-.71,1.14h0a17.31,17.31,0,0,1,1.43-2.27,8.54,8.54,0,0,1,1-.86,10.34,10.34,0,0,0,1.05-.83Z" transform="translate(-31.58 -161.03)"/><path class="cls-5" d="M121.68,352.08a48.69,48.69,0,0,1,.65-5.64,34.65,34.65,0,0,1,1.32-5.52h0a45.6,45.6,0,0,0-1.3,5.52c-.33,1.87-.52,3.76-.67,5.64Z" transform="translate(-31.58 -161.03)"/><path class="cls-5" d="M120.69,371.34c0-.56.08-1.12.08-1.68a2.23,2.23,0,0,0-.14-.81,4,4,0,0,1,0-.85,17.36,17.36,0,0,1,.88-3.23h0a21.46,21.46,0,0,0-.85,3.24,4.61,4.61,0,0,0,0,.83,2.86,2.86,0,0,1,.12.82,9.47,9.47,0,0,1-.09,1.68Z" transform="translate(-31.58 -161.03)"/><path class="cls-5" d="M127.09,352.44c-.07.66-.11,1.33-.19,2s-.14,1.33-.16,2c0,1.34-.13,2.67-.23,4h0c0-1.33.12-2.67.21-4s.22-2.66.37-4Z" transform="translate(-31.58 -161.03)"/><path class="cls-5" d="M124.13,394.26a34.43,34.43,0,0,0-.93,4c-.2,1.35-.31,2.71-.53,4.06h0c.16-1.35.26-2.72.5-4.07a28.79,28.79,0,0,1,1-4Z" transform="translate(-31.58 -161.03)"/><path class="cls-5" d="M116.08,396a15.76,15.76,0,0,0,.4-3.93,7.66,7.66,0,0,1,.25-2,15.37,15.37,0,0,1,.52-1.91h0c-.21.63-.33,1.28-.48,1.92a8.06,8.06,0,0,0-.27,2c0,.66,0,1.32-.07,2a10,10,0,0,1-.36,2Z" transform="translate(-31.58 -161.03)"/><path class="cls-5" d="M122.29,389.54c-.13.39-.25.78-.39,1.16a9.36,9.36,0,0,0-.37,1.17c-.19.79-.36,1.59-.49,2.4h0a17.94,17.94,0,0,1,1.24-4.73Z" transform="translate(-31.58 -161.03)"/><path class="cls-5" d="M414.55,181.25c-.37.19-.72.39-1.09.56a8.55,8.55,0,0,0-1.08.57c-.69.44-1.37.9-2,1.38h0a18.44,18.44,0,0,1,4.2-2.52Z" transform="translate(-31.58 -161.03)"/><path class="cls-5" d="M416.49,182.42a18.45,18.45,0,0,1,4.29-2.35h0c-.75.32-1.48.67-2.21,1a7.83,7.83,0,0,0-1,.64c-.34.23-.69.43-1,.65Z" transform="translate(-31.58 -161.03)"/><path class="cls-5" d="M338.34,228.13c.38-.16.75-.32,1.14-.46a9.28,9.28,0,0,0,1.13-.47c.73-.37,1.44-.76,2.14-1.18h0a17.9,17.9,0,0,1-4.41,2.11Z" transform="translate(-31.58 -161.03)"/><path class="cls-5" d="M92.86,463.41c-.34.21-.68.44-1,.65a7.49,7.49,0,0,0-1,.66c-.65.49-1.29,1-1.9,1.53h0a18.65,18.65,0,0,1,4-2.85Z" transform="translate(-31.58 -161.03)"/><path class="cls-5" d="M121.9,375.91a5.43,5.43,0,0,1-.1,1.75c-.13.57-.29,1.14-.37,1.72a7.27,7.27,0,0,0-.15,1.74c0,.59.1,1.17.19,1.75h0a11.49,11.49,0,0,1-.23-1.75,6.12,6.12,0,0,1,.17-1.75c.1-.57.22-1.15.35-1.72a5.66,5.66,0,0,0,.13-1.74Z" transform="translate(-31.58 -161.03)"/><path class="cls-5" d="M126,373.32a1.71,1.71,0,0,0-.31.81,8.66,8.66,0,0,1-.12.87c-.09.58-.19,1.16-.32,1.73h0c.07-.58.17-1.16.29-1.73a5.16,5.16,0,0,0,.11-.88,1.59,1.59,0,0,1,.34-.8Z" transform="translate(-31.58 -161.03)"/><path class="cls-5" d="M266.46,225.82c-.35.07-.66-.17-1-.32s-.59-.36-.88-.55c-.58-.38-1.14-.79-1.74-1.14s-1.3-.45-1.89-.83a11.26,11.26,0,0,1-1.68-1.22h0a18.36,18.36,0,0,0,1.7,1.18c.58.38,1.28.51,1.89.85s1.17.74,1.74,1.13c.28.19.57.39.87.56s.6.4.95.33Z" transform="translate(-31.58 -161.03)"/><path class="cls-5" d="M295.65,240.79a1.58,1.58,0,0,0-1.1-.43,4.52,4.52,0,0,1-1.21-.21,3.62,3.62,0,0,0-1.16-.35A3.24,3.24,0,0,0,291,240h0a2.59,2.59,0,0,1,1.2-.22,4.27,4.27,0,0,1,1.16.38,4.85,4.85,0,0,0,1.2.19,1.63,1.63,0,0,1,1.11.47Z" transform="translate(-31.58 -161.03)"/><path class="cls-5" d="M254,214.11a6.73,6.73,0,0,1-1.69-1.1,7,7,0,0,0-1.58-1.24,10.22,10.22,0,0,1-1.81-.91,6.88,6.88,0,0,0-1.89-.68h0a6.14,6.14,0,0,1,1.92.65,9.8,9.8,0,0,0,1.79.93,6.77,6.77,0,0,1,1.59,1.23A6.43,6.43,0,0,0,254,214.1Z" transform="translate(-31.58 -161.03)"/><path class="cls-5" d="M241.37,208.38a4.54,4.54,0,0,0-1.31-.73,11.3,11.3,0,0,1-1.34-.69,6,6,0,0,0-2.87-.81h0a5.17,5.17,0,0,1,2.88.81,13,13,0,0,0,1.35.66,4.82,4.82,0,0,1,1.3.76Z" transform="translate(-31.58 -161.03)"/><path class="cls-5" d="M178.26,215c-1.13.69-2.22,1.44-3.33,2.15a16.78,16.78,0,0,0-1.63,1.12c-.53.41-1,.82-1.54,1.26h0a14.18,14.18,0,0,1,1.51-1.28c.54-.39,1.09-.75,1.64-1.12,1.1-.73,2.21-1.45,3.35-2.12Z" transform="translate(-31.58 -161.03)"/><path class="cls-11" d="M124.09,312.78c-.07.53-.12,1.1-.15,1.73a12.52,12.52,0,0,1-.5,2.59" transform="translate(-31.58 -161.03)"/><path class="cls-11" d="M116.37,408.73a3.57,3.57,0,0,0-.1.35,1.8,1.8,0,0,0-.08.39" transform="translate(-31.58 -161.03)"/><path class="cls-11" d="M132.27,328.62a2.74,2.74,0,0,0,0,.43,2.66,2.66,0,0,0,0,.49" transform="translate(-31.58 -161.03)"/><path class="cls-11" d="M94.15,465.44l-.31.19a2.41,2.41,0,0,0-.32.24" transform="translate(-31.58 -161.03)"/><path class="cls-11" d="M76.42,504.75l.27-.61c.15-.35.18-.4.27-.65" transform="translate(-31.58 -161.03)"/><path class="cls-11" d="M335.82,223.54a3.4,3.4,0,0,0,1.81-.56,2.88,2.88,0,0,0,1.45-1.29" transform="translate(-31.58 -161.03)"/><path class="cls-5" d="M193.21,204.3a7.72,7.72,0,0,1-2.43,1.09c-.86.23-1.73.45-2.56.76a31.83,31.83,0,0,0-4.82,2.31h0a24.24,24.24,0,0,1,4.81-2.32c.84-.29,1.7-.53,2.56-.78a8.38,8.38,0,0,0,2.44-1Z" transform="translate(-31.58 -161.03)"/><path class="cls-10" d="M197.58,213.27c1.63-1.35,4.47-1.69,6.42-2.55" transform="translate(-31.58 -161.03)"/><path class="cls-5" d="M192.34,212a11.7,11.7,0,0,1-2.63,1.58,10.75,10.75,0,0,1-2.93.87h0a13,13,0,0,0,5.57-2.44Z" transform="translate(-31.58 -161.03)"/><path class="cls-5" d="M159.56,268.49a11.69,11.69,0,0,1-.42-3.48,7.89,7.89,0,0,1,.74-3.42h0a9.3,9.3,0,0,0-.71,3.42,13.18,13.18,0,0,0,.39,3.48Z" transform="translate(-31.58 -161.03)"/><path class="cls-5" d="M151.28,269.94a12,12,0,0,1-.27-3.05,10.74,10.74,0,0,1,.5-3h0a14.08,14.08,0,0,0-.48,3,13.61,13.61,0,0,0,.25,3.05Z" transform="translate(-31.58 -161.03)"/><path class="cls-11" d="M157.21,256.61a6.75,6.75,0,0,0-.12.72,3.58,3.58,0,0,0-.07.81" transform="translate(-31.58 -161.03)"/><path class="cls-11" d="M191.82,209.25a16.87,16.87,0,0,1,4.65-1.33" transform="translate(-31.58 -161.03)"/><path class="cls-5" d="M140.59,277.43c0,.41,0,.82,0,1.23a8.24,8.24,0,0,0,.07,1.22c.1.81.23,1.62.4,2.42h0a18.09,18.09,0,0,1-.51-4.87Z" transform="translate(-31.58 -161.03)"/><path class="cls-5" d="M157.2,246.68a30.76,30.76,0,0,1,4.17-9.39h0a36.73,36.73,0,0,0-2.45,4.54,31.49,31.49,0,0,0-1.72,4.86Z" transform="translate(-31.58 -161.03)"/><path class="cls-5" d="M145.15,248.11a19.51,19.51,0,0,1,1.09-3.4c.21-.56.5-1.08.75-1.62l.81-1.6h0l-.76,1.62c-.25.54-.55,1.06-.77,1.61a24,24,0,0,0-1.12,3.39Z" transform="translate(-31.58 -161.03)"/><path class="cls-5" d="M150.94,251.09a1.58,1.58,0,0,0,.58-1,4.78,4.78,0,0,1,.38-1.16,3.8,3.8,0,0,0,.51-1.1,3,3,0,0,0,0-1.2h0a2.65,2.65,0,0,1,0,1.22,4,4,0,0,1-.54,1.1,5.2,5.2,0,0,0-.36,1.16,1.61,1.61,0,0,1-.62,1Z" transform="translate(-31.58 -161.03)"/></g><g id="Layer_4" data-name="Layer 4"><path class="cls-13" d="M251.93,229.35c1-.17,8.85-1.7,12.07-8.64a14.24,14.24,0,0,0,1.26-6.73L277,222.1a25.9,25.9,0,0,0,5.9,3.42c2.48.94,4.89,1.28,9.08,1.87,1.75.24,3.2.41,4.18.51a25.18,25.18,0,0,0,2.52.33,26.91,26.91,0,0,0,3.55,0,28.06,28.06,0,0,1,3.6-.23c.83,0,1,.11,1.69.15a14,14,0,0,0,4.1-.39c4.15-.84,3.32-.55,8.27-1.62,3.22-.71,4.08-.94,5.1-1.56a7.78,7.78,0,0,1,1.66-.88,27.83,27.83,0,0,1,3.19-.6,16.26,16.26,0,0,0,1.85-.56,44.28,44.28,0,0,0,5.27-2.27c1.31-.65,2.8-1.38,5-2.59a67.16,67.16,0,0,0,8.8-5.43c2-1.51,3.31-2.61,3.31-2.61.72-.59,1-.79,1.52-1.23.22-.17.49-.38,2.8-2,.58-.41,1.15-.81,1.92-1.26a8.8,8.8,0,0,1,1.19-.62c.53-.21.68-.2,1.2-.41a6.14,6.14,0,0,0,1.25-.66,11.78,11.78,0,0,0,1.3-1.36c.38-.41.56-.61.64-.68a8.73,8.73,0,0,1,1.74-1.27c.74-.46,1.42-1,2.14-1.49l2.62-1.8c2.57-1.78,2.7-1.88,3.25-2.19.87-.5,1.62-.86,2.55-1.3,1.55-.73,1.53-.63,2.44-1.09a29.18,29.18,0,0,0,3.45-2.14c1.37-.92,1.32-.95,2.39-1.65,1.46-.95,2.58-1.55,2.83-1.69,1.24-.66,1.26-.57,2.84-1.36a20.44,20.44,0,0,0,3.67-2.13,13.45,13.45,0,0,0,2.08-2,2.53,2.53,0,0,1,.22-.26,4.1,4.1,0,0,1,1.45-.9l1.07-.51c.58-.31.65-.41,1.32-.81s1-.52,2.23-1.22c.44-.24.79-.45,1-.57l.27-.06.86-.2c.49-.13.86-.27,1.14-.37s.33-.12.63-.24c.58-.23.87-.34,1.22-.5.11-.05.55-.26,1.12-.57l.74-.44c.43-.26.72-.42,1.05-.64l.4-.26.42-.26.47-.33c.58-.4.87-.6,1-.69l.51-.38.53-.4.68-.5.47-.34.4-.29.25-.18c.2-.15,1.08-.8,1.77-1.27.27-.19.86-.59,1.62-1a31.39,31.39,0,0,1,2.81-1.48c.29-.14,1.09-.5,2.15-.9.26-.1.89-.34,1.71-.6l.88-.27a2.72,2.72,0,0,0-.85.66,2.81,2.81,0,0,0-.59,1.06,3.52,3.52,0,0,0-.2,1.26,3.58,3.58,0,0,0,.25,1.24,3.2,3.2,0,0,0,.89,1.39,5.67,5.67,0,0,0,1.21.72,4.69,4.69,0,0,0,.48.21,3.51,3.51,0,0,0,1.23.16,7.46,7.46,0,0,0,3.61-1,5,5,0,0,0,1.47-1.22,4,4,0,0,0,.76-1.42,2.6,2.6,0,0,0,.13-1.11,3,3,0,0,0-.94-1.69,6.5,6.5,0,0,0-1.94-1.48c2.64-.21,4.72-.44,6.17-.62.87-.11,1.66-.22,3.47-.43,3.76-.46,3-.32,3.69-.43.39-.06,1.2-.13,2.84-.27a2.74,2.74,0,0,1,.51,0,3,3,0,0,1,1.23.4,2.34,2.34,0,0,1,.88.72,2.25,2.25,0,0,1,.35,1.32,2.71,2.71,0,0,1-.27,1.19,3.28,3.28,0,0,1-.59.88,5.93,5.93,0,0,1-1,.81c-.43.29-.85.6-1.27.9l-1.58,1.13c-.38.28-.87.62-1.24.9l.15.27c.14-.09.38-.25.68-.42.74-.43.93-.43,1.76-.88l.9-.49c.32-.17.29-.15.3-.15a.43.43,0,0,1,.2-.11.22.22,0,0,1,.27.22.56.56,0,0,1,0,.13.24.24,0,0,0,0,.07s0,.06-.05.12a1.77,1.77,0,0,1-.06.17c0,.16,0,.14-.08.23s0,0-.06.19l-.06.17c0,.11,0,.13-.07.2s0,.14-.06.19a1.74,1.74,0,0,1-.14.3,2.28,2.28,0,0,1-.11.21l-.1.14a1.72,1.72,0,0,1-.16.2s0,0-.09.1l-.1.11-.18.19-.06.07-.09.09-.11.13-.06.06-.15.16-.15.16-.16.18a1.42,1.42,0,0,0-.19.2l-.21.22-.19.2-.23.24a3.12,3.12,0,0,1-.26.27l-.24.26-.32.34-.32.34c-.15.15-.15.16-.27.29l-.27.28-.29.3-.31.32-.43.44-.25.26-.27.28-.13.14-.25.26-.25.25-.28.29-.24.24c-.18.18-.2.21-.36.38l-.19.18-.27.27-.25.26-.09.09-.12.12-.12.13-.22.21-.21.22a1.64,1.64,0,0,1-.19.19l-.19.21s-.12.12-.24.24l-.26.27-.22.23a3.17,3.17,0,0,0-.23.25l-.3.3c-.38.39-2.74,2.93-4.42,4.6a49.58,49.58,0,0,1-4.25,3.77c-.9.68-1.85,1.33-1.85,1.33-.79.54-1.39.91-1.58,1-1,.63-1.95,1.26-5.3,3.52L416.16,200c-4,2.64-3.42,2.15-6.93,4.49-4.1,2.72-7.3,5-8.67,6L398,212.32c-3,2.19-4.5,3.28-5.72,4.19-3.19,2.41-5.83,4.58-6.34,5-2.1,1.73-2.62,2.24-4.17,3.36s-2.95,2-4.13,2.77c-1.56,1-1.31.77-4,2.45-2,1.23-2.78,1.76-3.77,2.36l-.49.31c-.68.45-1.15.82-1.25.9a68.82,68.82,0,0,1-6.12,3.83c-.48.28-1.72.95-4.2,2.3l-1.94,1.05c-.39.22-2.06,1.15-4.73,2.89-4.06,2.63-6.09,4-6.48,4.26a4.86,4.86,0,0,1-1.45.86,5.3,5.3,0,0,1-2.21.33,6,6,0,0,0,1.19.35,5.72,5.72,0,0,0,1.42.09,5.23,5.23,0,0,0,.84-.11c.06.13.16.33.25.58.23.61.19.81.4,1.43a4.13,4.13,0,0,0,.43.95,3.75,3.75,0,0,0,.62.72c.84.74.5.66,2.44,2.41,2.35,2.11,4.39,3.67,4.39,3.67a68.29,68.29,0,0,0,7.37,5A38.24,38.24,0,0,0,368,268a49.63,49.63,0,0,0,4.82,1.31,43.2,43.2,0,0,0,5.74,1.14c3.16.35,5.36.38,5.36.38a13.33,13.33,0,0,1,2.92.32,10.48,10.48,0,0,1,1.55.43c1.18.44,1.61.87,2.17,1a.78.78,0,0,1,.37.19.68.68,0,0,1,.25.43.77.77,0,0,1-.24.62.91.91,0,0,1-.48.25,1.34,1.34,0,0,1-.57,0c-.41-.11-.83-.14-1.24-.25l-2-.47c-.86-.19-1.16-.26-1.44-.31l-1.08-.21a18.5,18.5,0,0,0-2-.22c-.52,0-.65,0-2.85.1l-.95.05,0,.43,1,0c.72,0,.86,0,1.12,0a8.38,8.38,0,0,1,1.41.18c.7.13,1.4.23,2.1.35l2.54.43c2.33.4,2,.37,2.35.42s.87.15,2,.37a2.6,2.6,0,0,1,.45.14,2.21,2.21,0,0,1,.93.85,2.16,2.16,0,0,1,.27.94,2.71,2.71,0,0,1-.07,1c-.39-.2-.88-.44-1.46-.67a18.42,18.42,0,0,0-2.11-.72,21.75,21.75,0,0,0-4-.69c-1.47-.16-2.55-.19-2.8-.19-.9,0-1.55,0-2.56,0-.76,0-1.77.09-3,.19l1.31.18,2.37.29,2.41.3c1.56.2,2.62.37,2.93.42.72.12,1.2.2,1.88.33,1.2.24,2.08.47,2.32.53,1,.26,1.71.5,2,.58l.35.13c0,.39,0,.72,0,1a4.19,4.19,0,0,1-.09,1,1.55,1.55,0,0,1-.3.73,1.39,1.39,0,0,1-.68.42,2.55,2.55,0,0,1-1.13.11c-2.38-.31-4.8-.2-7.18-.5a44.45,44.45,0,0,0-9.45-.27c-.64.08-1.08.19-2.22.29a13.65,13.65,0,0,0-2,.29,2.86,2.86,0,0,0-1,.35,2.78,2.78,0,0,0-.86.93c-.41.6-.85,1.18-1.25,1.79-.19.28-.2.28-1.45,1.88l-1.77,2.29-2,2.54s-.37.47-.88,1.09a12.25,12.25,0,0,1-1.28,1.48,9.13,9.13,0,0,1-1.31,1,3.07,3.07,0,0,1-1.15.56,1.37,1.37,0,0,1-1.1-.13,1.48,1.48,0,0,1-.36-1.3,3.41,3.41,0,0,1,.55-1.24c.29-.55.12-.31.75-1.61.43-.91.65-1.37.94-1.88.52-.93,1-1.61,1.15-1.83.58-.83.66-.81,1-1.37a8.67,8.67,0,0,0,.88-1.89,8.42,8.42,0,0,0,.36-2.72,13.69,13.69,0,0,0-.18-1.79,13,13,0,0,0-.42-2.09,12.27,12.27,0,0,0-.42-1.16,9.88,9.88,0,0,0-.93-1.61,26.89,26.89,0,0,0-2.18-2.66c-.49-.54-1.25-1.39-2.29-2.46-.48-.51-.77-.79-1.81-1.86L351,266.79c-1.4-1.44-1.65-1.59-3.11-3.05-1.12-1.12-1.67-1.67-2.22-2.26a18.45,18.45,0,0,0-1.68-1.62c-.34-.28-.62-.49-.75-.59a13.88,13.88,0,0,0-1.58-1c-1.22-.72-3.05-2-6-4-1.43-.92-3.48-2.23-6.07-3.77a3.54,3.54,0,0,0-.92-.18,4,4,0,0,0-1.37.25c-.63.2-1.26.37-1.88.6a20.6,20.6,0,0,1-3.25.74c-1.54.29-2.66.42-4.17.59-1.87.22-3.22.31-3.6.34-1,.06-1.76.09-2.25.11s-1.16,0-3.45.08l-2.37,0c-1.29,0-2.28.08-3.88.16-2.15.11-1.94.12-2.51.13a23.56,23.56,0,0,1-3.78-.14,20.11,20.11,0,0,1-4.07-1c-.82-.28-1-.4-2.92-1.1-.71-.27-.85-.31-1.9-.69-1.7-.61-2.72-1-3.71-1.36-.62-.24-2-.79-3.59-1.5a55,55,0,0,1-5.12-2.77c-.65-.38-2.8-1.64-5.4-3.39-1.3-.88-2.36-1.63-2.77-1.93l-2.14-1.57c-1.47-1.1-2.22-1.65-2.64-2l-1.9-1.59c-.14-.12-.43-.37-.83-.69s-.59-.48-1-.76a15.81,15.81,0,0,0-1.41-1,11.39,11.39,0,0,0-1.25-.73,9.55,9.55,0,0,0-1.09-.5c-.5-.2-.63-.19-1.1-.41a5.83,5.83,0,0,1-.77-.4A6.19,6.19,0,0,1,251.93,229.35Z" transform="translate(-31.58 -161.03)"/></g><g id="Layer_5" data-name="Layer 5"><path class="cls-3" d="M432.4,180.5c.22.36.63.47,1.44.67a6.65,6.65,0,0,0,3.39.15,3.64,3.64,0,0,0,1.73-.74,3.36,3.36,0,0,0,1-3.28,3.56,3.56,0,0,0-1.25-1.9,3.39,3.39,0,0,0-2.14-.76,3.88,3.88,0,0,0-2.62,1.5,6,6,0,0,0-1.35,2.38C432.31,179.35,432.08,180,432.4,180.5Z" transform="translate(-31.58 -161.03)"/><path class="cls-2" d="M435.3,177.08a2.08,2.08,0,0,0-1.12,2.12c.33,1.13,2.39,1.8,3.52,1a2.11,2.11,0,0,0,.11-3.18A2.35,2.35,0,0,0,435.3,177.08Z" transform="translate(-31.58 -161.03)"/></g></svg>